<svg width="30" height="30" viewBox="0 0 30 30" fill="none" xmlns="http://www.w3.org/2000/svg">
<path d="M26.25 -0.00390625H3.75C1.68187 -0.00390625 0 1.67764 0 3.74536V26.241C0 28.3087 1.68187 29.9902 3.75 29.9902H26.25C28.3181 29.9902 30 28.3087 30 26.241V3.74536C30 1.67764 28.3181 -0.00390625 26.25 -0.00390625Z" fill="#1976D2"/>
<path d="M25.3125 14.9991H20.625V11.2499C20.625 10.2151 21.465 10.3126 22.5 10.3126H24.375V5.62598H20.625C17.5181 5.62598 15 8.14361 15 11.2499V14.9991H11.25V19.6857H15V29.9962H20.625V19.6857H23.4375L25.3125 14.9991Z" fill="#FAFAFA"/>
</svg>
