<svg width="26" height="26" viewBox="0 0 26 26" fill="none" xmlns="http://www.w3.org/2000/svg">
<path d="M22.1924 3.80763C19.737 1.35225 16.4724 0 13 0C9.52758 0 6.263 1.35225 3.80758 3.80763C1.35225 6.263 0 9.52758 0 13C0 16.4724 1.35225 19.737 3.80758 22.1924C6.263 24.6477 9.52758 26 13 26C16.4724 26 19.737 24.6477 22.1924 22.1924C24.6477 19.737 26 16.4724 26 13C26 9.52758 24.6477 6.263 22.1924 3.80763ZM13 24.4766C9.91027 24.4766 7.10216 23.2488 5.03689 21.2561C6.1553 17.8388 9.36848 15.4883 13 15.4883C16.6315 15.4883 19.8447 17.8388 20.9632 21.2561C18.8978 23.2488 16.0897 24.4766 13 24.4766ZM9.19141 10.1562C9.19141 8.05619 10.8999 6.34766 13 6.34766C15.1001 6.34766 16.8086 8.05619 16.8086 10.1562C16.8086 12.2563 15.1001 13.9648 13 13.9648C10.8999 13.9648 9.19141 12.2563 9.19141 10.1562ZM22.1071 19.975C20.9864 17.3529 18.7858 15.3606 16.1262 14.4729C17.4618 13.5029 18.332 11.9294 18.332 10.1562C18.332 7.21617 15.9401 4.82422 13 4.82422C10.0599 4.82422 7.66797 7.21617 7.66797 10.1562C7.66797 11.9294 8.53821 13.5029 9.87381 14.4729C7.21419 15.3606 5.01363 17.3529 3.89289 19.975C2.40774 18.0405 1.52344 15.6217 1.52344 13C1.52344 6.67179 6.67179 1.52344 13 1.52344C19.3282 1.52344 24.4766 6.67179 24.4766 13C24.4766 15.6217 23.5923 18.0405 22.1071 19.975Z" fill="black"/>
</svg>
