<svg width="26" height="26" viewBox="0 0 26 26" fill="none" xmlns="http://www.w3.org/2000/svg">
<path d="M10.2814 25.0571C8.85379 25.0571 7.69232 23.8956 7.69232 22.468C7.69232 21.0405 8.85379 19.8794 10.2814 19.8794C11.7089 19.8794 12.8704 21.0405 12.8704 22.468C12.8704 23.8956 11.7089 25.0571 10.2814 25.0571ZM10.2814 21.5044C9.74998 21.5044 9.31732 21.9366 9.31732 22.468C9.31732 22.9998 9.74957 23.4321 10.2814 23.4321C10.8131 23.4321 11.2454 22.9998 11.2454 22.468C11.2454 21.9366 10.8131 21.5044 10.2814 21.5044Z" fill="black"/>
<path d="M19.2814 25.0571C17.8539 25.0571 16.6928 23.8956 16.6928 22.468C16.6928 21.0405 17.8539 19.8794 19.2814 19.8794C20.709 19.8794 21.8705 21.0405 21.8705 22.468C21.8705 23.8956 20.7086 25.0571 19.2814 25.0571ZM19.2814 21.5044C18.7501 21.5044 18.3178 21.9366 18.3178 22.468C18.3178 22.9998 18.7501 23.4321 19.2814 23.4321C19.8132 23.4321 20.2455 22.9998 20.2455 22.468C20.2455 21.9366 19.8128 21.5044 19.2814 21.5044Z" fill="black"/>
<path d="M21.177 17.8725H8.41301C7.17111 17.8725 6.11039 17.0271 5.83332 15.8165L3.18417 4.24771C3.14923 4.09496 3.04361 3.96415 2.90142 3.89834L0.704011 2.87987C0.195386 2.64425 -0.02602 2.04056 0.209605 1.53153C0.44523 1.0229 1.04932 0.801495 1.55795 1.03712L3.75536 2.05559C4.46345 2.38343 4.99036 3.03343 5.16423 3.79434L7.81339 15.3639C7.87757 15.6451 8.12417 15.8417 8.41301 15.8417H21.177C21.4646 15.8417 21.7108 15.6463 21.7766 15.366L23.8363 6.50443C23.8952 6.25256 23.788 6.06934 23.7193 5.98281C23.6502 5.89587 23.4959 5.75043 23.2375 5.75043H8.20623C7.6452 5.75043 7.19061 5.29584 7.19061 4.73481C7.19061 4.17378 7.6452 3.71918 8.20623 3.71918H23.2375C24.0496 3.71918 24.8044 4.08359 25.3098 4.71937C25.8151 5.35515 25.9988 6.17334 25.8151 6.96431L23.755 15.8262C23.4743 17.0308 22.4144 17.8725 21.177 17.8725Z" fill="black"/>
</svg>
