<svg width="70" height="18" viewBox="0 0 70 18" fill="none" xmlns="http://www.w3.org/2000/svg">
<path d="M54.1195 4.72217H50.3417C50.1195 4.72217 49.8973 4.94439 49.7861 5.16661L48.2306 14.9444C48.2306 15.1666 48.3417 15.2777 48.5639 15.2777H50.5639C50.7861 15.2777 50.8973 15.1666 50.8973 14.9444L51.3417 12.1666C51.3417 11.9444 51.5639 11.7222 51.8973 11.7222H53.1195C55.675 11.7222 57.1195 10.5 57.4528 8.05551C57.675 7.0555 57.4528 6.16662 57.0084 5.61106C56.3417 5.0555 55.3417 4.72217 54.1195 4.72217ZM54.5639 8.38884C54.3417 9.72218 53.3417 9.72218 52.3417 9.72218H51.675L52.1195 7.16662C52.1195 7.05551 52.2306 6.94439 52.4528 6.94439H52.675C53.3417 6.94439 54.0084 6.94439 54.3417 7.38884C54.5639 7.49995 54.5639 7.83328 54.5639 8.38884Z" fill="#139AD6"/>
<path d="M26.8972 4.72217H23.1194C22.8972 4.72217 22.675 4.94439 22.5639 5.16661L21.0083 14.9444C21.0083 15.1666 21.1194 15.2777 21.3416 15.2777H23.1194C23.3416 15.2777 23.5639 15.0555 23.675 14.8333L24.1194 12.1666C24.1194 11.9444 24.3416 11.7222 24.675 11.7222H25.8972C28.4528 11.7222 29.8972 10.5 30.2305 8.05551C30.4528 7.0555 30.2305 6.16662 29.7861 5.61106C29.1194 5.0555 28.2305 4.72217 26.8972 4.72217ZM27.3416 8.38884C27.1194 9.72218 26.1194 9.72218 25.1194 9.72218H24.5639L25.0083 7.16662C25.0083 7.05551 25.1194 6.94439 25.3416 6.94439H25.5639C26.2305 6.94439 26.8972 6.94439 27.2305 7.38884C27.3416 7.49995 27.4528 7.83328 27.3416 8.38884Z" fill="#263B80"/>
<path d="M38.3417 8.27764H36.5639C36.4528 8.27764 36.2306 8.38875 36.2306 8.49986L36.1194 9.05542L36.0083 8.8332C35.5639 8.27764 34.7861 8.05542 33.8972 8.05542C31.8972 8.05542 30.1194 9.61098 29.7861 11.7221C29.5639 12.8332 29.8972 13.8332 30.4528 14.4999C31.0083 15.1665 31.7861 15.3888 32.7861 15.3888C34.4528 15.3888 35.3417 14.3888 35.3417 14.3888L35.2306 14.9443C35.2306 15.1665 35.3417 15.2777 35.5639 15.2777H37.2306C37.4528 15.2777 37.675 15.0554 37.7861 14.8332L38.7861 8.61098C38.675 8.49986 38.4528 8.27764 38.3417 8.27764ZM35.7861 11.8332C35.5639 12.8332 34.7861 13.611 33.675 13.611C33.1194 13.611 32.675 13.3888 32.4528 13.1665C32.2305 12.8332 32.1194 12.3888 32.1194 11.8332C32.2305 10.8332 33.1194 10.0554 34.1194 10.0554C34.675 10.0554 35.0083 10.2776 35.3417 10.4999C35.675 10.8332 35.7861 11.3888 35.7861 11.8332Z" fill="#263B80"/>
<path d="M65.4528 8.27764H63.675C63.5639 8.27764 63.3417 8.38875 63.3417 8.49986L63.2306 9.05542L63.1195 8.8332C62.675 8.27764 61.8973 8.05542 61.0084 8.05542C59.0084 8.05542 57.2306 9.61098 56.8972 11.7221C56.675 12.8332 57.0084 13.8332 57.5639 14.4999C58.1195 15.1665 58.8972 15.3888 59.8972 15.3888C61.5639 15.3888 62.4528 14.3888 62.4528 14.3888L62.3417 14.9443C62.3417 15.1665 62.4528 15.2777 62.675 15.2777H64.3417C64.5639 15.2777 64.7861 15.0554 64.8973 14.8332L65.8973 8.61098C65.7861 8.49986 65.675 8.27764 65.4528 8.27764ZM62.8972 11.8332C62.675 12.8332 61.8973 13.611 60.7861 13.611C60.2306 13.611 59.7861 13.3888 59.5639 13.1665C59.3417 12.8332 59.2306 12.3888 59.2306 11.8332C59.3417 10.8332 60.2306 10.0554 61.2306 10.0554C61.7861 10.0554 62.1195 10.2776 62.4528 10.4999C62.8973 10.8332 63.0084 11.3888 62.8972 11.8332Z" fill="#139AD6"/>
<path d="M48.0083 8.27759H46.1194C45.8972 8.27759 45.7861 8.3887 45.675 8.49981L43.2305 12.2776L42.1194 8.72203C42.0083 8.49981 41.8972 8.3887 41.5639 8.3887H39.7861C39.5639 8.3887 39.4528 8.61092 39.4528 8.83314L41.4528 14.722L39.5639 17.3887C39.4528 17.6109 39.5639 17.9443 39.7861 17.9443H41.5639C41.7861 17.9443 41.8972 17.8332 42.0083 17.722L48.1194 8.94426C48.4528 8.61092 48.2305 8.27759 48.0083 8.27759Z" fill="#263B80"/>
<path d="M67.5639 5.05536L66.0083 15.0554C66.0083 15.2776 66.1194 15.3887 66.3416 15.3887H67.8972C68.1194 15.3887 68.3416 15.1665 68.4527 14.9443L70.0083 5.16647C70.0083 4.94425 69.8972 4.83314 69.675 4.83314H67.8972C67.7861 4.72203 67.675 4.83314 67.5639 5.05536Z" fill="#139AD6"/>
<path d="M12.7861 1.389C12.0083 0.500108 10.5639 0.0556641 8.56387 0.0556641H3.00831C2.67497 0.0556641 2.34164 0.388996 2.23053 0.72233L0.00830078 15.2779C0.00830078 15.6112 0.230523 15.8335 0.452746 15.8335H3.8972L4.78609 10.389V10.6112C4.8972 10.2779 5.23053 9.94456 5.56386 9.94456H7.23053C10.4528 9.94456 12.8972 8.61123 13.675 4.94456C13.675 4.83345 13.675 4.72234 13.675 4.61122C13.5639 4.61122 13.5639 4.61122 13.675 4.61122C13.7861 3.16678 13.5639 2.27789 12.7861 1.389Z" fill="#263B80"/>
<path d="M13.5639 4.61108C13.5639 4.7222 13.5639 4.83331 13.5639 4.94442C12.7861 8.7222 10.3416 9.94442 7.1194 9.94442H5.45273C5.1194 9.94442 4.78607 10.2778 4.67496 10.6111L3.56384 17.3889C3.56384 17.6111 3.67495 17.8333 4.00829 17.8333H6.89718C7.23051 17.8333 7.56385 17.6111 7.56385 17.2778V17.1667L8.11941 13.7222V13.5C8.11941 13.1666 8.45274 12.9444 8.78607 12.9444H9.23052C12.0083 12.9444 14.2305 11.8333 14.7861 8.49998C15.0083 7.16664 14.8972 5.94442 14.2305 5.16664C14.1194 4.94442 13.8972 4.7222 13.5639 4.61108Z" fill="#139AD6"/>
<path d="M12.786 4.27791C12.6749 4.27791 12.5638 4.1668 12.4527 4.1668C12.3416 4.1668 12.2305 4.1668 12.1194 4.05569C11.6749 3.94458 11.2305 3.94458 10.6749 3.94458H6.34157C6.23046 3.94458 6.11935 3.94458 6.00823 4.05569C5.78601 4.1668 5.6749 4.38902 5.6749 4.61125L4.78601 10.389V10.6113C4.89712 10.2779 5.23046 9.94459 5.56379 9.94459H7.23046C10.4527 9.94459 12.8971 8.61125 13.6749 4.94458C13.6749 4.83347 13.6749 4.72236 13.786 4.61125C13.5638 4.50013 13.4527 4.38902 13.2305 4.38902C12.8971 4.27791 12.8971 4.27791 12.786 4.27791Z" fill="#232C65"/>
</svg>
