<svg width="24" height="24" viewBox="0 0 24 24" fill="none" xmlns="http://www.w3.org/2000/svg">
<path d="M23.2189 21.8975L19.2659 18.0327L19.1732 17.8918C19.001 17.7203 18.7654 17.6237 18.5195 17.6237C18.2737 17.6237 18.0381 17.7203 17.8659 17.8918C14.5064 20.9738 9.32987 21.1414 5.76931 18.2833C2.20874 15.4252 1.36902 10.4284 3.80704 6.60669C6.24506 2.78502 11.2043 1.32437 15.3958 3.19346C19.5873 5.06254 21.7104 9.68136 20.3571 13.9867C20.2596 14.2978 20.3393 14.636 20.566 14.874C20.7928 15.1121 21.1323 15.2137 21.4565 15.1408C21.7807 15.0678 22.0405 14.8312 22.138 14.5202C23.7558 9.41094 21.3124 3.91269 16.3885 1.58222C11.4647 -0.748254 5.53796 0.788448 2.44241 5.19823C-0.653139 9.60801 0.011456 15.5675 4.00627 19.2214C8.00109 22.8754 14.1272 23.1273 18.4217 19.8141L21.9218 23.2361C22.2833 23.588 22.8677 23.588 23.2292 23.2361C23.5903 22.8792 23.5903 22.3047 23.2292 21.9478L23.2189 21.8975Z" fill="white"/>
</svg>
