<svg width="20" height="20" viewBox="0 0 20 20" fill="none" xmlns="http://www.w3.org/2000/svg">
<path d="M12.3 18.875C11.9557 18.8696 11.6193 18.7716 11.326 18.5912C11.0327 18.4109 10.7935 18.1548 10.6333 17.85L7.73333 12.55C7.67017 12.4288 7.57126 12.3299 7.44999 12.2667L2.14999 9.40837C1.81323 9.22543 1.53784 8.94732 1.35823 8.60878C1.17861 8.27024 1.10274 7.88628 1.14008 7.50486C1.17742 7.12345 1.32632 6.76149 1.56819 6.46421C1.81005 6.16693 2.13415 5.94752 2.49999 5.83337L16.3083 1.22503C16.657 1.10146 17.0336 1.07918 17.3944 1.16078C17.7553 1.24239 18.0856 1.42454 18.3472 1.68613C18.6088 1.94773 18.791 2.27807 18.8726 2.63891C18.9542 2.99976 18.9319 3.37633 18.8083 3.72503L14.1667 17.5417C14.05 17.902 13.8297 18.2199 13.5332 18.4556C13.2367 18.6913 12.8773 18.8343 12.5 18.8667L12.3 18.875ZM16.6667 2.4167L2.85833 7.02503C2.72669 7.06736 2.61053 7.14772 2.52451 7.25599C2.43849 7.36425 2.38646 7.49557 2.37499 7.63337C2.36255 7.76952 2.39075 7.90631 2.45601 8.02645C2.52127 8.14659 2.62067 8.24469 2.74166 8.30837L8.04166 11.1667C8.37876 11.3455 8.65452 11.6213 8.83333 11.9584L11.6667 17.2584C11.7303 17.3794 11.8284 17.4788 11.9486 17.544C12.0687 17.6093 12.2055 17.6375 12.3417 17.625C12.4795 17.6136 12.6108 17.5615 12.719 17.4755C12.8273 17.3895 12.9077 17.2733 12.95 17.1417L17.5833 3.33337C17.6373 3.20515 17.6518 3.06376 17.625 2.92726C17.5983 2.79075 17.5314 2.66532 17.4331 2.56696C17.3347 2.4686 17.2093 2.40177 17.0728 2.37501C16.9363 2.34825 16.7949 2.36276 16.6667 2.4167Z" fill="#64B496"/>
<path d="M8.05833 12.5667C7.97601 12.5685 7.89421 12.5532 7.81815 12.5216C7.7421 12.49 7.67348 12.4429 7.61667 12.3833C7.5577 12.3259 7.51084 12.2572 7.47884 12.1813C7.44684 12.1055 7.43036 12.024 7.43036 11.9417C7.43036 11.8593 7.44684 11.7778 7.47884 11.702C7.51084 11.6261 7.5577 11.5574 7.61667 11.5L17.4167 1.66665C17.5382 1.5451 17.7031 1.47681 17.875 1.47681C18.0469 1.47681 18.2118 1.5451 18.3333 1.66665C18.4549 1.78821 18.5232 1.95308 18.5232 2.12499C18.5232 2.2969 18.4549 2.46176 18.3333 2.58332L8.5 12.3833C8.4423 12.4417 8.3735 12.4881 8.29766 12.5195C8.22182 12.551 8.14045 12.567 8.05833 12.5667Z" fill="#64B496"/>
</svg>
