<svg width="30" height="30" viewBox="0 0 30 30" fill="none" xmlns="http://www.w3.org/2000/svg">
<g clip-path="url(#clip0_1_1054)">
<path d="M16.0081 14.4838L22.7592 24.1402H19.9885L14.4795 16.2605V16.2601L13.6707 15.1033L7.23523 5.89795H10.0059L15.1993 13.327L16.0081 14.4838Z" fill="black"/>
<path d="M26.7633 -0.00390625H3.24645C1.45623 -0.00390625 0.00488281 1.44744 0.00488281 3.23766V26.7545C0.00488281 28.5448 1.45623 29.9961 3.24645 29.9961H26.7633C28.5535 29.9961 30.0049 28.5448 30.0049 26.7545V3.23766C30.0049 1.44744 28.5535 -0.00390625 26.7633 -0.00390625ZM19.1398 25.4367L13.565 17.3232L6.58532 25.4367H4.78141L12.7641 16.158L4.78141 4.5401H10.8699L16.1489 12.223L22.7582 4.5401H24.5621L16.9501 13.3885H16.9496L25.2284 25.4367H19.1398Z" fill="black"/>
</g>
<defs>
<clipPath id="clip0_1_1054">
<rect width="30" height="30" fill="white" transform="translate(0.00488281 -0.00390625)"/>
</clipPath>
</defs>
</svg>
