<svg width="26" height="24" viewBox="0 0 26 24" fill="none" xmlns="http://www.w3.org/2000/svg">
<path d="M12.9991 23.5651C12.6289 23.5651 12.2721 23.431 11.994 23.1874C10.9437 22.269 9.93118 21.406 9.0378 20.6447L9.03323 20.6408C6.41402 18.4087 4.15224 16.4812 2.57854 14.5824C0.819398 12.4597 0 10.447 0 8.24826C0 6.11204 0.732518 4.14121 2.06243 2.69862C3.40824 1.23897 5.25487 0.435059 7.26277 0.435059C8.7635 0.435059 10.1378 0.909524 11.3476 1.84515C11.9581 2.31738 12.5115 2.89538 12.9991 3.56956C13.4868 2.89538 14.04 2.31738 14.6507 1.84515C15.8605 0.909524 17.2348 0.435059 18.7356 0.435059C20.7433 0.435059 22.5901 1.23897 23.9359 2.69862C25.2658 4.14121 25.9981 6.11204 25.9981 8.24826C25.9981 10.4469 25.1789 12.4596 23.4198 14.5822C21.846 16.4812 19.5845 18.4085 16.9657 20.6404C16.0707 21.4028 15.0566 22.2672 14.0039 23.1878C13.7257 23.4311 13.3686 23.5652 12.9991 23.5651ZM7.26277 1.95798C5.68531 1.95798 4.23617 2.58757 3.18193 3.73083C2.11204 4.8914 1.52272 6.49567 1.52272 8.24826C1.52272 10.0975 2.20999 11.7513 3.75099 13.6107C5.2404 15.4079 7.45578 17.2958 10.0209 19.4818L10.0256 19.4858C10.9223 20.25 11.9389 21.1164 12.9969 22.0415C14.0612 21.1146 15.0794 20.2468 15.9779 19.4814C18.5428 17.2954 20.7579 15.4079 22.2473 13.6107C23.7881 11.7513 24.4754 10.0975 24.4754 8.24826C24.4754 6.49562 23.8861 4.89135 22.8162 3.73083C21.7622 2.58757 20.3129 1.95798 18.7356 1.95798C17.58 1.95798 16.519 2.32536 15.5822 3.0497C14.7473 3.69554 14.1658 4.51194 13.8248 5.08319C13.6495 5.37694 13.3408 5.55227 12.9991 5.55227C12.6573 5.55227 12.3487 5.37694 12.1733 5.08319C11.8326 4.51194 11.251 3.69554 10.4159 3.0497C9.47916 2.32536 8.41816 1.95798 7.26277 1.95798Z" fill="black"/>
</svg>
