<svg width="67" height="20" viewBox="0 0 67 20" fill="none" xmlns="http://www.w3.org/2000/svg">
<rect width="67" height="20" fill="#1E1E1E"/>
<g clip-path="url(#clip0_0_1)">
<rect width="1920" height="6335" transform="translate(-1417 -6139)" fill="white"/>
<rect x="-1417" y="-215" width="1920" height="411" fill="#64B496"/>
<rect x="-11.9956" y="-15" width="90" height="50" rx="3" fill="#F7F7F8"/>
<path d="M24.4012 19.4809L27.7536 0.623779H32.9917L29.744 19.4809H24.4012Z" fill="#3C58BF"/>
<path d="M24.4012 19.4809L28.6964 0.623779H32.9917L29.744 19.4809H24.4012Z" fill="#293688"/>
<path d="M48.7059 0.833212C47.6583 0.414164 45.9821 -0.00488281 43.8869 -0.00488281C38.6488 -0.00488281 34.8774 2.61416 34.8774 6.38559C34.8774 9.21416 37.4964 10.6808 39.5917 11.6237C41.6869 12.5665 42.3155 13.1951 42.3155 14.0332C42.3155 15.2904 40.6393 15.9189 39.1726 15.9189C37.0774 15.9189 35.925 15.6046 34.144 14.8713L33.4107 14.557L32.6774 18.8523C33.9345 19.3761 36.2393 19.8999 38.6488 19.8999C44.2012 19.8999 47.8678 17.2808 47.8678 13.2999C47.8678 11.0999 46.5059 9.42369 43.3631 8.06178C41.4774 7.11893 40.325 6.59512 40.325 5.65226C40.325 4.81416 41.2678 3.97607 43.3631 3.97607C45.144 3.97607 46.4012 4.29036 47.344 4.7094L47.8678 4.91893L48.7059 0.833212Z" fill="#3C58BF"/>
<path d="M48.7059 0.833212C47.6583 0.414164 45.9821 -0.00488281 43.8869 -0.00488281C38.6488 -0.00488281 35.8202 2.61416 35.8202 6.38559C35.8202 9.21416 37.4964 10.6808 39.5917 11.6237C41.6869 12.5665 42.3155 13.1951 42.3155 14.0332C42.3155 15.2904 40.6393 15.9189 39.1726 15.9189C37.0774 15.9189 35.925 15.6046 34.144 14.8713L33.4107 14.557L32.6774 18.8523C33.9345 19.3761 36.2393 19.8999 38.6488 19.8999C44.2012 19.8999 47.8678 17.2808 47.8678 13.2999C47.8678 11.0999 46.5059 9.42369 43.3631 8.06178C41.4774 7.11893 40.325 6.59512 40.325 5.65226C40.325 4.81416 41.2678 3.97607 43.3631 3.97607C45.144 3.97607 46.4012 4.29036 47.344 4.7094L47.8678 4.91893L48.7059 0.833212Z" fill="#293688"/>
<path d="M57.7155 0.623779C56.4583 0.623779 55.5155 0.728542 54.9917 1.98569L47.1345 19.4809H52.7917L53.8393 16.3381H60.544L61.1726 19.4809H66.2012L61.8012 0.623779H57.7155ZM55.3059 13.1952C55.6202 12.2523 57.4012 7.64283 57.4012 7.64283C57.4012 7.64283 57.8202 6.49045 58.1345 5.75711L58.4488 7.53806C58.4488 7.53806 59.4964 12.2524 59.7059 13.3H55.3059V13.1952Z" fill="#3C58BF"/>
<path d="M58.9726 0.623779C57.7155 0.623779 56.7726 0.728542 56.2488 1.98569L47.1345 19.4809H52.7917L53.8393 16.3381H60.544L61.1726 19.4809H66.2012L61.8012 0.623779H58.9726ZM55.3059 13.1952C55.725 12.1476 57.4012 7.64283 57.4012 7.64283C57.4012 7.64283 57.8202 6.49045 58.1345 5.75711L58.4488 7.53806C58.4488 7.53806 59.4964 12.2524 59.7059 13.3H55.3059V13.1952Z" fill="#293688"/>
<path d="M14.7631 13.8238L14.2393 11.0999C13.2964 7.95709 10.2583 4.49994 6.90594 2.82375L11.6202 19.5857H17.2774L25.7631 0.728516H20.1059L14.7631 13.8238Z" fill="#3C58BF"/>
<path d="M14.7631 13.8238L14.2393 11.0999C13.2964 7.95709 10.2583 4.49994 6.90594 2.82375L11.6202 19.5857H17.2774L25.7631 0.728516H21.1536L14.7631 13.8238Z" fill="#293688"/>
<path d="M0.201172 0.623779L1.14403 0.833304C7.84879 2.40473 12.4583 6.38568 14.2393 11.1L12.3536 2.19521C12.0393 0.938065 11.0964 0.623779 9.94403 0.623779H0.201172Z" fill="#FFBC00"/>
<path d="M0.201172 0.623779C6.90593 2.19521 12.4583 6.28092 14.2393 10.9952L12.4583 3.55711C12.144 2.29997 11.0964 1.56664 9.94403 1.56664L0.201172 0.623779Z" fill="#F7981D"/>
<path d="M0.201172 0.623779C6.90593 2.19521 12.4583 6.28092 14.2393 10.9952L12.9821 6.90949C12.6678 5.65235 12.2488 4.39521 10.7821 3.8714L0.201172 0.623779Z" fill="#ED7C00"/>
<path d="M20.0012 13.1952L16.4393 9.63328L14.7631 13.6142L14.344 10.9952C13.4012 7.85233 10.3631 4.39518 7.01068 2.71899L11.725 19.4809H17.3821L20.0012 13.1952Z" fill="#051244"/>
<path d="M29.744 19.4809L25.2393 14.8713L24.4012 19.4809H29.744Z" fill="#051244"/>
<path d="M41.7917 12.9856C42.2107 13.4046 42.4202 13.7189 42.3155 14.138C42.3155 15.3951 40.6393 16.0237 39.1726 16.0237C37.0774 16.0237 35.925 15.7094 34.144 14.9761L33.4107 14.6618L32.6774 18.957C33.9345 19.4808 36.2393 20.0046 38.6488 20.0046C42.0012 20.0046 44.725 19.0618 46.2964 17.3856L41.7917 12.9856Z" fill="#051244"/>
<path d="M47.8678 19.4809H52.7916L53.8393 16.338H60.544L61.1726 19.4809H66.2012L64.4202 11.8333L58.1345 5.75708L58.4488 7.43327C58.4488 7.43327 59.4964 12.1476 59.7059 13.1952H55.3059C55.725 12.1476 57.4012 7.64279 57.4012 7.64279C57.4012 7.64279 57.8202 6.49041 58.1345 5.75708" fill="#051244"/>
</g>
<defs>
<clipPath id="clip0_0_1">
<rect width="1920" height="6335" fill="white" transform="translate(-1417 -6139)"/>
</clipPath>
</defs>
</svg>
