<svg width="84" height="15" viewBox="0 0 84 15" fill="none" xmlns="http://www.w3.org/2000/svg">
<g clip-path="url(#clip0_1_141)">
<mask id="mask0_1_141" style="mask-type:luminance" maskUnits="userSpaceOnUse" x="0" y="0" width="84" height="15">
<path d="M83.994 0H0.322266V15H83.994V0Z" fill="white"/>
</mask>
<g mask="url(#mask0_1_141)">
<path fill-rule="evenodd" clip-rule="evenodd" d="M56.7847 14.6824C56.7847 14.7267 56.8019 14.7692 56.8329 14.801C56.8638 14.8327 56.9059 14.8511 56.9501 14.8523H61.0781C61.1002 14.8523 61.1221 14.8479 61.1424 14.8393C61.1628 14.8307 61.1812 14.8181 61.1967 14.8023C61.2121 14.7864 61.2242 14.7677 61.2322 14.7471C61.2403 14.7265 61.2441 14.7045 61.2435 14.6824V0.362193C61.2441 0.340295 61.2403 0.318501 61.2322 0.298146C61.2241 0.277791 61.2119 0.259302 61.1964 0.243812C61.1809 0.228321 61.1625 0.216155 61.1421 0.208058C61.1217 0.19996 61.0999 0.196102 61.0781 0.196719H56.9501C56.9063 0.196719 56.8642 0.214153 56.8331 0.245185C56.8021 0.276218 56.7847 0.318307 56.7847 0.362193V14.6734V14.6824Z" fill="#425A8B"/>
<path fill-rule="evenodd" clip-rule="evenodd" d="M37.5181 14.508L31.4403 0.447223C31.4187 0.403368 31.3857 0.366118 31.3448 0.339369C31.3039 0.312619 31.2565 0.297353 31.2077 0.295166H25.0941C25.0452 0.296873 24.9976 0.311946 24.9566 0.33875C24.9156 0.365554 24.8828 0.403067 24.8616 0.447223L18.7837 14.508C18.7729 14.524 18.767 14.5429 18.7669 14.5622C18.7667 14.5815 18.7721 14.6004 18.7826 14.6166C18.7931 14.6328 18.8081 14.6456 18.8258 14.6533C18.8435 14.6611 18.8631 14.6634 18.8821 14.6601H23.1845C23.233 14.6567 23.2797 14.6404 23.3198 14.6129C23.3599 14.5854 23.3919 14.5476 23.4125 14.5036L24.307 12.33C24.3278 12.2865 24.36 12.2495 24.4002 12.2227C24.4403 12.1959 24.4869 12.1805 24.5351 12.178H31.7936C31.8414 12.1798 31.8877 12.195 31.9272 12.2219C31.9668 12.2488 31.9979 12.2863 32.0172 12.33L32.8446 14.5036C32.8636 14.5479 32.8946 14.586 32.9341 14.6136C32.9736 14.6413 33.02 14.6574 33.0682 14.6601H37.4152C37.4341 14.6625 37.4533 14.6596 37.4706 14.6518C37.4879 14.6439 37.5027 14.6315 37.5134 14.6157C37.5241 14.5999 37.5301 14.5815 37.531 14.5625C37.5318 14.5435 37.5273 14.5247 37.5181 14.508ZM25.4966 9.14132L27.5047 3.90876C27.7417 3.38551 27.9519 3.31395 28.1845 3.31395C28.417 3.31395 28.6764 3.52862 28.8195 3.9356L30.7963 9.14132H25.4966Z" fill="#425A8B"/>
<path fill-rule="evenodd" clip-rule="evenodd" d="M74.9644 0.107422H70.2551C64.5574 0.192395 63.6853 2.00814 63.6853 7.31225C63.6853 8.20671 63.6853 9.10116 63.7256 9.99561C63.8821 13.5332 65.8141 14.6289 69.0431 14.8704C70.0538 14.9375 72.4107 14.9822 72.5091 14.9778C72.5091 14.9778 75.1612 14.9375 76.1719 14.8704C79.4009 14.6289 81.3329 13.5287 81.4894 9.99561C81.5341 9.10116 81.5341 8.20671 81.5341 7.31225C81.5341 2.00814 80.6397 0.192395 74.9644 0.107422ZM77.0261 7.92942C77.0261 10.3445 76.874 11.2926 74.2175 11.3552C73.5243 11.3955 71.6951 11.3955 71.0019 11.3552C68.3409 11.2926 68.1889 10.3445 68.1889 7.92942V7.33461C68.1778 6.76283 68.2002 6.1909 68.256 5.62173C68.5198 3.60027 70.0449 3.71207 71.5297 3.66735C72.0753 3.66735 73.1397 3.66735 73.6898 3.66735C75.1835 3.71207 76.6996 3.60027 76.9635 5.62173C77.0155 6.19113 77.0364 6.76294 77.0261 7.33461V7.92942Z" fill="#425A8B"/>
<path fill-rule="evenodd" clip-rule="evenodd" d="M13.6317 9.19061C13.5065 10.6844 12.9877 11.306 10.8545 11.3552C10.1613 11.3955 8.3321 11.3955 7.6389 11.3552C4.98237 11.2926 4.82584 10.3445 4.82584 7.92942V7.33461C4.81479 6.76283 4.83719 6.1909 4.89293 5.62173C5.15679 3.60027 6.68184 3.71207 8.16663 3.66735C8.71672 3.66735 9.78112 3.66735 10.3267 3.66735C11.7534 3.7076 13.1979 3.61368 13.5557 5.35787H18.113C17.8491 1.55196 16.5343 0.178978 11.6013 0.107422H6.89203C1.21672 0.192395 0.322266 2.00814 0.322266 7.31225C0.322266 8.20671 0.322266 9.10116 0.366988 9.99561C0.519046 13.5556 2.45554 14.6513 5.68899 14.8928C6.69973 14.9599 9.05214 15.0046 9.15053 15.0001C9.15053 15.0001 11.8026 14.9599 12.8133 14.8928C16.0423 14.6513 17.9788 13.5511 18.1309 10.018C18.1309 9.74069 18.1309 9.46789 18.1622 9.19061H13.6317Z" fill="#425A8B"/>
<path fill-rule="evenodd" clip-rule="evenodd" d="M43.3634 9.11896C44.3518 9.11896 45.3178 9.15474 46.3106 9.16368L47.5271 9.21288C48.5378 9.26655 50.0673 8.89982 50.0673 10.5546C50.0673 11.6279 49.0342 11.6503 48.2427 11.6905C47.0978 11.7263 47.2677 11.7442 46.1273 11.7352C45.4251 11.7352 45.367 11.7352 44.6425 11.7039C43.6541 11.6503 42.9967 11.4043 42.9385 10.3041L38.5647 10.2862C38.5647 11.212 38.5065 11.932 38.9851 12.7952C40.0226 14.5394 42.1156 14.8614 43.9046 14.8971L46.0244 14.9553C47.7149 14.9553 50.1255 14.9553 51.6863 14.5572C53.9895 13.9669 54.4368 12.4732 54.4368 10.2862C54.4953 9.31606 54.2276 8.35419 53.6765 7.55367C53.0235 6.69946 51.9859 6.2746 50.7069 6.21199C48.2695 6.08229 47.7194 6.03757 45.282 6.01968H44.4859C43.5199 6.01968 42.4198 5.70662 42.4287 4.51699C42.4376 3.32737 43.426 3.20662 44.4189 3.17531C44.9063 3.17531 45.4877 3.17531 46.4761 3.17531C47.1783 3.17531 46.9725 3.21556 47.6747 3.20662C48.8688 3.20662 49.9824 3.2737 49.9734 4.61538L54.3652 4.64669V3.98479C54.392 0.675313 52.2006 0.259392 49.7811 0.0894454C48.7927 0 47.782 0 46.7936 0C44.884 0 44.9019 0.0268336 42.9922 0.125224C39.6067 0.362254 38.019 1.01968 37.9922 4.5975C37.9654 8.39893 39.96 9.06977 43.3589 9.0966L43.3634 9.11896Z" fill="#425A8B"/>
<path fill-rule="evenodd" clip-rule="evenodd" d="M83.8418 13.1394C83.7457 12.9682 83.6051 12.826 83.4348 12.728C83.2646 12.6308 83.0718 12.5799 82.8758 12.5804C82.6812 12.5801 82.49 12.631 82.3213 12.728C82.1487 12.8245 82.0063 12.9669 81.9098 13.1394C81.8122 13.3095 81.7613 13.5024 81.7622 13.6985C81.7618 13.8956 81.8138 14.0894 81.9128 14.2599C82.0118 14.4304 82.1543 14.5716 82.3257 14.669C82.4938 14.763 82.6832 14.8123 82.8758 14.8123C83.0684 14.8123 83.2578 14.763 83.4259 14.669C83.597 14.5707 83.7394 14.4295 83.839 14.2593C83.9386 14.089 83.992 13.8957 83.9939 13.6985C83.9954 13.5017 83.9428 13.3083 83.8418 13.1394ZM83.6942 14.177C83.6079 14.3158 83.4872 14.4299 83.3438 14.5082C83.2004 14.5866 83.0392 14.6265 82.8758 14.6242C82.7116 14.6246 82.5499 14.583 82.4062 14.5035C82.261 14.4207 82.1402 14.301 82.0562 14.1564C81.9722 14.0119 81.9278 13.8478 81.9277 13.6806C81.9284 13.5145 81.9715 13.3513 82.0529 13.2065C82.1359 13.0615 82.2557 12.9411 82.4002 12.8573C82.5447 12.7735 82.7088 12.7293 82.8758 12.7293C83.0429 12.7293 83.2069 12.7735 83.3514 12.8573C83.4959 12.9411 83.6157 13.0615 83.6987 13.2065C83.7801 13.3513 83.8233 13.5145 83.8239 13.6806C83.8239 13.8488 83.7791 14.0139 83.6942 14.1591V14.177Z" fill="#425A8B"/>
<path fill-rule="evenodd" clip-rule="evenodd" d="M83.1891 13.9669C83.1528 13.8913 83.101 13.8243 83.037 13.7701C83.1201 13.7379 83.1906 13.6799 83.2383 13.6046C83.2825 13.5385 83.3059 13.4606 83.3054 13.381C83.3065 13.3156 83.2911 13.251 83.2606 13.1932C83.2294 13.1383 83.1848 13.0921 83.1309 13.059C83.0538 13.0245 82.9694 13.0091 82.885 13.0143H82.4377V14.3918H82.6569V13.8104H82.8179C82.8403 13.8104 82.876 13.8551 82.9297 13.9445L82.9744 14.0295L83.1622 14.3918H83.4082L83.1801 13.9669H83.1891ZM82.8179 13.6449H82.6658V13.1977H82.8313C82.8855 13.1917 82.9401 13.2026 82.9878 13.229C83.0171 13.2486 83.0416 13.2745 83.0594 13.305C83.0742 13.3388 83.0818 13.3754 83.0818 13.4123C83.0824 13.4753 83.0619 13.5367 83.0236 13.5867C82.9973 13.6142 82.9652 13.6353 82.9295 13.6485C82.8939 13.6616 82.8557 13.6665 82.8179 13.6628V13.6449Z" fill="#425A8B"/>
</g>
</g>
<defs>
<clipPath id="clip0_1_141">
<rect width="84" height="15" fill="white"/>
</clipPath>
</defs>
</svg>
