<svg width="102" height="15" viewBox="0 0 102 15" fill="none" xmlns="http://www.w3.org/2000/svg">
<g clip-path="url(#clip0_1_177)">
<mask id="mask0_1_177" style="mask-type:luminance" maskUnits="userSpaceOnUse" x="0" y="0" width="102" height="15">
<path d="M101.732 0H0.0644531V15H101.732V0Z" fill="white"/>
</mask>
<g mask="url(#mask0_1_177)">
<path fill-rule="evenodd" clip-rule="evenodd" d="M24.407 4.29819H28.1671L28.3349 5.53613C28.6241 4.54693 30.5215 3.84119 31.6785 3.84119C34.3684 3.84119 35.4386 5.49564 35.4386 8.38804V14.6299H31.2678V9.0533C31.2678 7.93683 31.0595 7.1096 29.943 7.1096C28.8266 7.1096 28.3754 8.22607 28.3754 9.00702V14.6299H24.407V4.29819Z" fill="#425A8B"/>
<path fill-rule="evenodd" clip-rule="evenodd" d="M0.0644531 14.6701V0.0404053H7.04671C11.2233 0.0404053 13.1265 2.06509 13.1265 4.99798C13.1265 8.13913 11.3911 10.291 7.04671 10.291H4.6923V14.6701H0.0644531ZM6.55501 6.73921C7.67147 6.73921 8.86893 6.49046 8.86893 5.20624C8.86893 3.92201 7.5847 3.59806 6.55501 3.59806H4.6923V6.73921H6.55501Z" fill="#425A8B"/>
<path fill-rule="evenodd" clip-rule="evenodd" d="M70.3613 4.29819H74.1677L74.2892 5.53613C74.6189 4.54693 76.5221 3.84119 77.6791 3.84119C80.3228 3.84119 81.4392 5.49564 81.4392 8.38804V14.6704H77.2626V9.0533C77.2626 7.93683 77.0196 7.1096 75.9032 7.1096C74.9082 7.1096 74.3702 8.22607 74.3702 9.00702V14.6704H70.3613V4.29819Z" fill="#425A8B"/>
<path fill-rule="evenodd" clip-rule="evenodd" d="M51.1847 10.9507C51.1886 11.4057 51.3501 11.8452 51.6417 12.1945C51.9618 12.4447 52.3522 12.5883 52.7581 12.6052C53.4986 12.6052 54.0829 12.3969 54.0829 11.697C54.1234 9.96148 47.8006 11.4887 47.8006 7.35831C47.8006 4.46591 50.0277 3.80066 52.3416 3.80066C54.6556 3.80066 57.843 4.25766 57.7157 7.39881H54.2043C54.1903 7.12551 54.0889 6.86395 53.9151 6.65257C53.7797 6.50316 53.6132 6.38531 53.4273 6.30735C53.2414 6.22938 53.0406 6.19319 52.8391 6.20135C52.1392 6.15507 51.4739 6.28234 51.4739 6.82033C51.5202 8.4285 58.005 7.35831 58.005 11.159C58.005 13.8026 56.148 15.0001 52.5499 15.0001C50.2765 14.9596 47.4246 13.8026 47.4246 10.9507H51.1847Z" fill="#425A8B"/>
<path fill-rule="evenodd" clip-rule="evenodd" d="M93.9635 8.30705C93.9863 7.947 93.868 7.59222 93.6337 7.31785C93.5098 7.12996 93.3451 6.97252 93.1517 6.85732C92.9584 6.74212 92.7415 6.67213 92.5173 6.6526C90.9438 6.6526 90.5331 8.18558 90.5331 9.42352C90.5331 10.8698 91.1926 12.0672 92.4305 12.0672C92.8837 12.036 93.3067 11.8282 93.6084 11.4886C93.9102 11.149 94.0667 10.7046 94.0445 10.2508H97.6831C97.7641 12.397 96.2774 14.9596 92.2685 14.9596C91.5268 14.9942 90.786 14.8736 90.0934 14.6057C89.4009 14.3378 88.7718 13.9283 88.2465 13.4035C87.7211 12.8787 87.311 12.2501 87.0424 11.5578C86.7737 10.8656 86.6524 10.1249 86.6862 9.38303C86.6862 5.37416 89.6654 3.84119 92.228 3.84119C95.6989 3.84119 97.6831 5.95264 97.6426 8.30705H93.9635Z" fill="#425A8B"/>
<path fill-rule="evenodd" clip-rule="evenodd" d="M19.9874 14.6702L19.5709 13.8024C18.7649 14.5155 17.713 14.8869 16.638 14.8379C15.3538 14.7974 12.8374 14.6297 12.8374 11.8588C12.8374 7.31772 19.6114 9.3829 19.6114 7.14996C19.6114 6.40372 18.7842 6.44421 18.333 6.44421C17.5057 6.44421 16.9678 6.61197 16.8463 7.84992H13.3696C13.3696 5.70376 14.0349 3.88733 18.5759 3.88733C22.9955 3.88733 23.4525 6.20125 23.4525 8.47468V13.1835C23.4193 13.4304 23.4427 13.6815 23.5208 13.9181C23.599 14.1546 23.7299 14.3702 23.9037 14.5487V14.6297L19.9816 14.6702H19.9874ZM19.6519 9.92088C18.2462 10.5803 16.4703 10.5398 16.4298 11.5695C16.4298 12.2348 16.8 12.5645 17.6272 12.5645C18.9924 12.5645 19.7387 11.1588 19.6519 9.92088ZM43.2944 14.6702L42.8721 13.8024C42.0633 14.5108 41.0134 14.8814 39.9392 14.8379C38.6203 14.7974 36.0981 14.6297 36.0981 11.8588C36.0981 7.31772 42.8721 9.3829 42.9184 7.14996C42.9184 6.40372 42.0507 6.44421 41.6342 6.44421C40.7664 6.44421 40.2689 6.61197 40.1475 7.84992H36.6766C36.6766 5.70376 37.2956 3.88733 41.8829 3.88733C46.262 3.88733 46.719 6.20125 46.719 8.47468V13.1835C46.6858 13.4304 46.7092 13.6815 46.7873 13.9181C46.8655 14.1546 46.9964 14.3702 47.1702 14.5487V14.6297L43.2886 14.6702H43.2944ZM42.9647 9.92088C41.559 10.5803 39.7367 10.5398 39.7367 11.5695C39.7367 12.2348 40.0723 12.5645 40.94 12.5645C42.2589 12.5645 43.0457 11.1588 42.9647 9.92088Z" fill="#425A8B"/>
<path fill-rule="evenodd" clip-rule="evenodd" d="M86.0267 14.6703V4.29811H82.2087V14.6703H86.0267ZM82.2087 2.97339H86.0499V0H82.2087V2.97339Z" fill="#425A8B"/>
<path fill-rule="evenodd" clip-rule="evenodd" d="M64.1658 3.92786C67.5962 3.92786 69.7019 6.32277 69.7019 9.46392C69.7019 12.6051 67.5962 15 64.1658 15C60.7354 15 58.5835 12.6456 58.5835 9.46392C58.5835 6.28227 60.7354 3.92786 64.1658 3.92786ZM62.3436 9.46392C62.3436 10.7481 62.7601 12.3158 64.1658 12.3563C65.5715 12.3968 65.9418 10.7481 65.9418 9.46392C65.9418 8.17969 65.5715 6.61201 64.1658 6.61201C62.7601 6.61201 62.3841 8.22597 62.3436 9.46392Z" fill="#425A8B"/>
<path fill-rule="evenodd" clip-rule="evenodd" d="M100.142 12.6456C100.39 12.6456 100.761 12.6861 100.761 12.3564C100.761 12.0266 100.512 12.0266 100.309 12.0266H99.8119V12.6456H100.142ZM100.969 13.6406H100.72L100.223 12.8134H99.8119V13.6406H99.5632V11.8589H100.309C100.639 11.8589 100.934 11.963 100.934 12.3564C100.934 12.7497 100.72 12.8134 100.39 12.8134L100.928 13.6406H100.969ZM101.547 12.7902C101.552 12.5137 101.474 12.2421 101.323 12.0103C101.172 11.7785 100.956 11.597 100.701 11.489C100.446 11.3811 100.165 11.3517 99.894 11.4045C99.6225 11.4573 99.373 11.59 99.1775 11.7856C98.9819 11.9811 98.8493 12.2306 98.7964 12.5021C98.7436 12.7735 98.773 13.0545 98.881 13.3092C98.9889 13.5638 99.1704 13.7803 99.4022 13.9311C99.6341 14.0819 99.9057 14.16 100.182 14.1554C100.542 14.1495 100.886 14.0037 101.141 13.749C101.396 13.4942 101.541 13.1504 101.547 12.7902ZM98.5913 12.7902C98.5868 12.4771 98.6757 12.1697 98.8468 11.9075C99.018 11.6452 99.2635 11.4399 99.5519 11.318C99.8403 11.196 100.159 11.1629 100.466 11.2229C100.773 11.2829 101.056 11.4332 101.277 11.6546C101.499 11.8761 101.649 12.1586 101.709 12.4659C101.769 12.7733 101.736 13.0916 101.614 13.38C101.492 13.6684 101.287 13.9139 101.024 14.085C100.762 14.2562 100.455 14.3451 100.142 14.3406C99.7259 14.3406 99.3271 14.1754 99.0331 13.8814C98.7391 13.5874 98.574 13.1886 98.574 12.7729L98.5913 12.7902Z" fill="#425A8B"/>
</g>
</g>
<defs>
<clipPath id="clip0_1_177">
<rect width="102" height="15" fill="white"/>
</clipPath>
</defs>
</svg>
