<svg width="66" height="15" viewBox="0 0 66 15" fill="none" xmlns="http://www.w3.org/2000/svg">
<g clip-path="url(#clip0_1_205)">
<mask id="mask0_1_205" style="mask-type:luminance" maskUnits="userSpaceOnUse" x="0" y="0" width="66" height="15">
<path d="M65.2759 0H0.732422V15H65.2759V0Z" fill="white"/>
</mask>
<g mask="url(#mask0_1_205)">
<path fill-rule="evenodd" clip-rule="evenodd" d="M50.3311 7.50695C50.3311 8.98485 50.7693 10.4296 51.5904 11.6584C52.4115 12.8873 53.5785 13.845 54.9439 14.4106C56.3093 14.9762 57.8117 15.1241 59.2612 14.8358C60.7108 14.5475 62.0422 13.8358 63.0872 12.7908C64.1323 11.7457 64.844 10.4143 65.1323 8.96474C65.4206 7.51524 65.2726 6.01278 64.7071 4.64738C64.1415 3.28198 63.1837 2.11495 61.9549 1.29387C60.7261 0.472795 59.2814 0.0345459 57.8035 0.0345459C55.8222 0.0363727 53.9226 0.824228 52.5217 2.22518C51.1207 3.62613 50.3329 5.5257 50.3311 7.50695ZM53.1116 7.50695C53.1116 6.57899 53.3868 5.67188 53.9024 4.90031C54.4179 4.12875 55.1507 3.52739 56.008 3.17228C56.8653 2.81716 57.8087 2.72425 58.7188 2.90529C59.6289 3.08632 60.4649 3.53317 61.1211 4.18933C61.7772 4.8455 62.2241 5.6815 62.4051 6.59162C62.5861 7.50174 62.4932 8.44511 62.1381 9.30242C61.783 10.1598 61.1816 10.8925 60.4101 11.4081C59.6385 11.9236 58.7314 12.1988 57.8035 12.1988C56.5594 12.1979 55.3665 11.7033 54.4868 10.8236C53.6072 9.94386 53.1126 8.75101 53.1116 7.50695Z" fill="#425A8B"/>
<path fill-rule="evenodd" clip-rule="evenodd" d="M43.2795 3.65685V15H46.0394V3.50506C46.0394 3.40501 46.0567 2.65639 46.5638 2.32176L45.0527 0C43.5451 0.99011 43.2312 2.75989 43.2795 3.65685Z" fill="#425A8B"/>
<path fill-rule="evenodd" clip-rule="evenodd" d="M18.8718 6.76169C17.278 9.52158 15.7669 12.1572 13.6039 12.1572C11.4408 12.1572 9.9332 9.53538 8.32212 6.76169C6.52129 3.59817 4.46172 0.0172119 0.732422 0.0172119V2.7771C2.85064 2.7771 4.34443 5.3783 5.92791 8.12784C7.75634 11.312 9.83316 14.9206 13.6039 14.9206C17.3746 14.9206 19.4514 11.3293 21.2832 8.14509C22.8633 5.3852 24.3571 2.79435 26.4787 2.79435C28.6004 2.79435 30.0907 5.39555 31.6742 8.14509C33.5061 11.3293 35.576 14.9378 39.3502 14.9378V12.1572C37.1837 12.1572 35.6795 9.53538 34.0822 6.76169C32.2642 3.59817 30.2046 0.0172119 26.4787 0.0172119C22.7529 0.0172119 20.6899 3.59817 18.889 6.76169H18.8718Z" fill="#425A8B"/>
<path fill-rule="evenodd" clip-rule="evenodd" d="M28.5314 10.1081C28.5314 10.5175 28.41 10.9177 28.1826 11.2581C27.9551 11.5985 27.6319 11.8638 27.2536 12.0205C26.8754 12.1771 26.4592 12.2181 26.0577 12.1383C25.6562 12.0584 25.2873 11.8613 24.9979 11.5718C24.7084 11.2823 24.5112 10.9135 24.4314 10.5119C24.3515 10.1104 24.3925 9.69423 24.5492 9.316C24.7058 8.93777 24.9711 8.6145 25.3115 8.38705C25.6519 8.15961 26.0521 8.03821 26.4615 8.03821C27.0105 8.03821 27.537 8.25629 27.9252 8.64447C28.3134 9.03266 28.5314 9.55915 28.5314 10.1081Z" fill="#425A8B"/>
</g>
</g>
<defs>
<clipPath id="clip0_1_205">
<rect width="66" height="15" fill="white"/>
</clipPath>
</defs>
</svg>
