<svg width="104" height="24" viewBox="0 0 104 24" fill="none" xmlns="http://www.w3.org/2000/svg">
<path d="M33.976 8.62V6.3H38.984V8.62H33.976ZM33.976 13.004V10.828H38.824V13.004H33.976ZM32.184 6.3H34.776V17.5H32.184V6.3ZM42.1754 15.196C42.1754 15.388 42.2234 15.5533 42.3194 15.692C42.4154 15.82 42.5434 15.9213 42.7034 15.996C42.8634 16.06 43.0394 16.092 43.2314 16.092C43.5087 16.092 43.7647 16.0333 43.9994 15.916C44.234 15.7987 44.426 15.6227 44.5754 15.388C44.7247 15.1533 44.7994 14.8653 44.7994 14.524L45.0554 15.484C45.0554 15.9533 44.9274 16.3533 44.6714 16.684C44.4154 17.004 44.0847 17.2493 43.6794 17.42C43.274 17.58 42.8367 17.66 42.3674 17.66C41.898 17.66 41.4607 17.5747 41.0554 17.404C40.6607 17.2227 40.3407 16.956 40.0954 16.604C39.8607 16.252 39.7434 15.8253 39.7434 15.324C39.7434 14.62 39.994 14.0653 40.4954 13.66C40.9967 13.244 41.706 13.036 42.6234 13.036C43.0714 13.036 43.4714 13.0787 43.8234 13.164C44.186 13.2493 44.4954 13.356 44.7514 13.484C45.0074 13.612 45.1994 13.7453 45.3274 13.884V14.956C45.0714 14.764 44.7727 14.62 44.4314 14.524C44.1007 14.4173 43.7487 14.364 43.3754 14.364C43.0874 14.364 42.858 14.396 42.6874 14.46C42.5167 14.524 42.3887 14.62 42.3034 14.748C42.218 14.8653 42.1754 15.0147 42.1754 15.196ZM41.1034 12.396L40.2874 10.78C40.7034 10.5773 41.2047 10.3853 41.7914 10.204C42.378 10.0227 43.018 9.932 43.7114 9.932C44.362 9.932 44.9434 10.028 45.4554 10.22C45.9674 10.4013 46.3727 10.668 46.6714 11.02C46.97 11.372 47.1194 11.804 47.1194 12.316V17.5H44.7994V12.86C44.7994 12.6787 44.7674 12.524 44.7034 12.396C44.65 12.2573 44.5647 12.14 44.4474 12.044C44.33 11.948 44.1807 11.8787 43.9994 11.836C43.8287 11.7933 43.6314 11.772 43.4074 11.772C43.0767 11.772 42.7514 11.8093 42.4314 11.884C42.122 11.9587 41.85 12.0493 41.6154 12.156C41.3807 12.252 41.21 12.332 41.1034 12.396ZM50.9604 13.82C50.9604 14.2147 51.0457 14.556 51.2164 14.844C51.387 15.1213 51.6217 15.34 51.9204 15.5C52.2297 15.66 52.5604 15.74 52.9124 15.74C53.211 15.74 53.4937 15.6973 53.7604 15.612C54.0377 15.516 54.2884 15.388 54.5124 15.228C54.747 15.068 54.939 14.8707 55.0884 14.636V16.988C54.8324 17.1907 54.5124 17.356 54.1284 17.484C53.7444 17.6013 53.275 17.66 52.7204 17.66C51.9097 17.66 51.179 17.5 50.5284 17.18C49.8884 16.86 49.3817 16.412 49.0084 15.836C48.6457 15.26 48.4644 14.588 48.4644 13.82C48.4644 13.0413 48.6457 12.3693 49.0084 11.804C49.3817 11.228 49.8884 10.78 50.5284 10.46C51.179 10.14 51.9097 9.98 52.7204 9.98C53.275 9.98 53.7444 10.044 54.1284 10.172C54.5124 10.2893 54.8324 10.4387 55.0884 10.62V12.988C54.939 12.7533 54.7417 12.556 54.4964 12.396C54.2617 12.236 54.0057 12.1133 53.7284 12.028C53.451 11.9427 53.179 11.9 52.9124 11.9C52.5604 11.9 52.2297 11.9853 51.9204 12.156C51.6217 12.3267 51.387 12.556 51.2164 12.844C51.0457 13.132 50.9604 13.4573 50.9604 13.82ZM60.5786 17.66C59.7253 17.66 58.984 17.5053 58.3546 17.196C57.736 16.876 57.256 16.428 56.9146 15.852C56.5733 15.276 56.4026 14.5987 56.4026 13.82C56.4026 13.0307 56.568 12.348 56.8986 11.772C57.2293 11.196 57.704 10.7533 58.3226 10.444C58.952 10.1347 59.6933 9.98 60.5466 9.98C61.4 9.98 62.12 10.1293 62.7066 10.428C63.2933 10.716 63.7413 11.1373 64.0506 11.692C64.36 12.2467 64.5146 12.9187 64.5146 13.708C64.5146 13.8253 64.5146 13.9427 64.5146 14.06C64.5146 14.1667 64.504 14.2573 64.4826 14.332H57.7626V12.988H62.3066L61.7306 13.724C61.784 13.6493 61.8266 13.5587 61.8586 13.452C61.9013 13.3347 61.9226 13.2387 61.9226 13.164C61.9226 12.844 61.864 12.5667 61.7466 12.332C61.6293 12.0973 61.464 11.916 61.2506 11.788C61.0373 11.66 60.7866 11.596 60.4986 11.596C60.136 11.596 59.832 11.676 59.5866 11.836C59.3413 11.996 59.1546 12.2413 59.0266 12.572C58.9093 12.892 58.8453 13.2973 58.8346 13.788C58.8346 14.236 58.8986 14.62 59.0266 14.94C59.1546 15.26 59.3466 15.5053 59.6026 15.676C59.8586 15.836 60.1733 15.916 60.5466 15.916C60.9733 15.916 61.336 15.836 61.6346 15.676C61.944 15.516 62.1893 15.276 62.3706 14.956L64.5306 15.484C64.1466 16.2093 63.624 16.7533 62.9626 17.116C62.312 17.4787 61.5173 17.66 60.5786 17.66ZM68.4065 5.02V17.5H65.9905V5.02H68.4065ZM74.4225 13.82C74.4225 14.6413 74.2518 15.34 73.9105 15.916C73.5798 16.4813 73.1478 16.9133 72.6145 17.212C72.0918 17.5107 71.5265 17.66 70.9185 17.66C70.3105 17.66 69.7665 17.5053 69.2865 17.196C68.8065 16.8867 68.4278 16.444 68.1505 15.868C67.8732 15.292 67.7345 14.6093 67.7345 13.82C67.7345 13.02 67.8732 12.3373 68.1505 11.772C68.4278 11.196 68.8065 10.7533 69.2865 10.444C69.7665 10.1347 70.3105 9.98 70.9185 9.98C71.5265 9.98 72.0918 10.1293 72.6145 10.428C73.1478 10.7267 73.5798 11.1587 73.9105 11.724C74.2518 12.2893 74.4225 12.988 74.4225 13.82ZM71.8785 13.82C71.8785 13.436 71.7985 13.1053 71.6385 12.828C71.4785 12.54 71.2652 12.3213 70.9985 12.172C70.7318 12.012 70.4385 11.932 70.1185 11.932C69.8412 11.932 69.5692 12.0067 69.3025 12.156C69.0465 12.3053 68.8332 12.524 68.6625 12.812C68.4918 13.0893 68.4065 13.4253 68.4065 13.82C68.4065 14.2147 68.4918 14.556 68.6625 14.844C68.8332 15.1213 69.0465 15.3347 69.3025 15.484C69.5692 15.6333 69.8412 15.708 70.1185 15.708C70.4385 15.708 70.7318 15.6333 70.9985 15.484C71.2652 15.324 71.4785 15.1053 71.6385 14.828C71.7985 14.54 71.8785 14.204 71.8785 13.82ZM75.4495 13.82C75.4495 13.0413 75.6308 12.364 75.9935 11.788C76.3562 11.212 76.8575 10.764 77.4975 10.444C78.1375 10.124 78.8575 9.964 79.6575 9.964C80.4575 9.964 81.1722 10.124 81.8015 10.444C82.4415 10.764 82.9428 11.212 83.3055 11.788C83.6788 12.364 83.8655 13.0413 83.8655 13.82C83.8655 14.588 83.6788 15.26 83.3055 15.836C82.9428 16.412 82.4415 16.86 81.8015 17.18C81.1722 17.5 80.4575 17.66 79.6575 17.66C78.8575 17.66 78.1375 17.5 77.4975 17.18C76.8575 16.86 76.3562 16.412 75.9935 15.836C75.6308 15.26 75.4495 14.588 75.4495 13.82ZM77.9295 13.82C77.9295 14.204 78.0095 14.5347 78.1695 14.812C78.3295 15.0787 78.5375 15.2867 78.7935 15.436C79.0495 15.5853 79.3375 15.66 79.6575 15.66C79.9668 15.66 80.2495 15.5853 80.5055 15.436C80.7722 15.2867 80.9802 15.0787 81.1295 14.812C81.2895 14.5347 81.3695 14.204 81.3695 13.82C81.3695 13.436 81.2895 13.1053 81.1295 12.828C80.9802 12.5507 80.7722 12.3373 80.5055 12.188C80.2495 12.0387 79.9668 11.964 79.6575 11.964C79.3375 11.964 79.0495 12.0387 78.7935 12.188C78.5375 12.3373 78.3295 12.5507 78.1695 12.828C78.0095 13.1053 77.9295 13.436 77.9295 13.82ZM84.8714 13.82C84.8714 13.0413 85.0527 12.364 85.4154 11.788C85.778 11.212 86.2794 10.764 86.9194 10.444C87.5594 10.124 88.2794 9.964 89.0794 9.964C89.8794 9.964 90.594 10.124 91.2234 10.444C91.8634 10.764 92.3647 11.212 92.7274 11.788C93.1007 12.364 93.2874 13.0413 93.2874 13.82C93.2874 14.588 93.1007 15.26 92.7274 15.836C92.3647 16.412 91.8634 16.86 91.2234 17.18C90.594 17.5 89.8794 17.66 89.0794 17.66C88.2794 17.66 87.5594 17.5 86.9194 17.18C86.2794 16.86 85.778 16.412 85.4154 15.836C85.0527 15.26 84.8714 14.588 84.8714 13.82ZM87.3514 13.82C87.3514 14.204 87.4314 14.5347 87.5914 14.812C87.7514 15.0787 87.9594 15.2867 88.2154 15.436C88.4714 15.5853 88.7594 15.66 89.0794 15.66C89.3887 15.66 89.6714 15.5853 89.9274 15.436C90.194 15.2867 90.402 15.0787 90.5514 14.812C90.7114 14.5347 90.7914 14.204 90.7914 13.82C90.7914 13.436 90.7114 13.1053 90.5514 12.828C90.402 12.5507 90.194 12.3373 89.9274 12.188C89.6714 12.0387 89.3887 11.964 89.0794 11.964C88.7594 11.964 88.4714 12.0387 88.2154 12.188C87.9594 12.3373 87.7514 12.5507 87.5914 12.828C87.4314 13.1053 87.3514 13.436 87.3514 13.82ZM94.7093 5.02H97.0293V17.5H94.7093V5.02ZM99.7013 10.14H102.581L99.4453 13.18L102.901 17.5H100.069L96.5493 13.18L99.7013 10.14Z" fill="black"/>
<g clip-path="url(#clip0_448_780)">
<path d="M21 12C21 6.20106 16.2989 1.5 10.5 1.5C4.70106 1.5 0 6.20106 0 12C0 16.9241 3.39024 21.056 7.96362 22.1909V15.2088H5.79852V12H7.96362V10.6174C7.96362 7.04358 9.58104 5.3871 13.0897 5.3871C13.755 5.3871 14.9029 5.51772 15.3724 5.64792V8.55642C15.1246 8.53038 14.6941 8.51736 14.1595 8.51736C12.4379 8.51736 11.7726 9.16962 11.7726 10.8652V12H15.2023L14.6131 15.2088H11.7726V22.4231C16.9718 21.7952 21.0004 17.3684 21.0004 12H21Z" fill="#0866FF"/>
<path d="M14.6129 15.2088L15.2021 12H11.7724V10.8652C11.7724 9.16962 12.4377 8.51736 14.1593 8.51736C14.6939 8.51736 15.1244 8.53038 15.3722 8.55642V5.64792C14.9027 5.5173 13.7548 5.3871 13.0895 5.3871C9.58086 5.3871 7.96344 7.04358 7.96344 10.6174V12H5.79834V15.2088H7.96344V22.1909C8.77572 22.3925 9.62538 22.5 10.4998 22.5C10.9303 22.5 11.3549 22.4735 11.772 22.4231V15.2088H14.6125H14.6129Z" fill="white"/>
</g>
<defs>
<clipPath id="clip0_448_780">
<rect width="21" height="21" fill="white" transform="translate(0 1.5)"/>
</clipPath>
</defs>
</svg>
