<svg width="88" height="24" viewBox="0 0 88 24" fill="none" xmlns="http://www.w3.org/2000/svg">
<path d="M38.236 13.452V11.372H43.9C43.9533 12.268 43.8627 13.1053 43.628 13.884C43.3933 14.6627 43.0307 15.3507 42.54 15.948C42.0493 16.5453 41.436 17.0147 40.7 17.356C39.964 17.6867 39.1213 17.852 38.172 17.852C37.276 17.852 36.4547 17.7133 35.708 17.436C34.9613 17.148 34.316 16.7427 33.772 16.22C33.228 15.6867 32.8013 15.0573 32.492 14.332C32.1933 13.596 32.044 12.7853 32.044 11.9C32.044 11.0147 32.1987 10.2147 32.508 9.5C32.8173 8.77467 33.2547 8.156 33.82 7.644C34.3853 7.132 35.0467 6.73733 35.804 6.46C36.5613 6.18267 37.3827 6.044 38.268 6.044C39.0573 6.044 39.7667 6.156 40.396 6.38C41.0253 6.604 41.58 6.91867 42.06 7.324C42.5507 7.71867 42.972 8.17733 43.324 8.7L40.924 9.948C40.668 9.5 40.3213 9.132 39.884 8.844C39.4573 8.54533 38.9187 8.396 38.268 8.396C37.6387 8.396 37.068 8.53467 36.556 8.812C36.044 9.08933 35.6333 9.48933 35.324 10.012C35.0253 10.524 34.876 11.1533 34.876 11.9C34.876 12.636 35.02 13.276 35.308 13.82C35.6067 14.3533 36.0067 14.7693 36.508 15.068C37.02 15.356 37.6067 15.5 38.268 15.5C38.6733 15.5 39.0413 15.452 39.372 15.356C39.7027 15.2493 39.9853 15.1053 40.22 14.924C40.4547 14.732 40.652 14.5133 40.812 14.268C40.9827 14.012 41.116 13.74 41.212 13.452H38.236ZM45.0433 13.82C45.0433 13.0413 45.2246 12.364 45.5872 11.788C45.9499 11.212 46.4513 10.764 47.0913 10.444C47.7313 10.124 48.4513 9.964 49.2513 9.964C50.0513 9.964 50.7659 10.124 51.3953 10.444C52.0353 10.764 52.5366 11.212 52.8993 11.788C53.2726 12.364 53.4593 13.0413 53.4593 13.82C53.4593 14.588 53.2726 15.26 52.8993 15.836C52.5366 16.412 52.0353 16.86 51.3953 17.18C50.7659 17.5 50.0513 17.66 49.2513 17.66C48.4513 17.66 47.7313 17.5 47.0913 17.18C46.4513 16.86 45.9499 16.412 45.5872 15.836C45.2246 15.26 45.0433 14.588 45.0433 13.82ZM47.5233 13.82C47.5233 14.204 47.6033 14.5347 47.7633 14.812C47.9233 15.0787 48.1313 15.2867 48.3873 15.436C48.6433 15.5853 48.9313 15.66 49.2513 15.66C49.5606 15.66 49.8433 15.5853 50.0993 15.436C50.3659 15.2867 50.5739 15.0787 50.7233 14.812C50.8833 14.5347 50.9633 14.204 50.9633 13.82C50.9633 13.436 50.8833 13.1053 50.7233 12.828C50.5739 12.5507 50.3659 12.3373 50.0993 12.188C49.8433 12.0387 49.5606 11.964 49.2513 11.964C48.9313 11.964 48.6433 12.0387 48.3873 12.188C48.1313 12.3373 47.9233 12.5507 47.7633 12.828C47.6033 13.1053 47.5233 13.436 47.5233 13.82ZM54.4651 13.82C54.4651 13.0413 54.6465 12.364 55.0091 11.788C55.3718 11.212 55.8731 10.764 56.5131 10.444C57.1531 10.124 57.8731 9.964 58.6731 9.964C59.4731 9.964 60.1878 10.124 60.8171 10.444C61.4571 10.764 61.9585 11.212 62.3211 11.788C62.6945 12.364 62.8811 13.0413 62.8811 13.82C62.8811 14.588 62.6945 15.26 62.3211 15.836C61.9585 16.412 61.4571 16.86 60.8171 17.18C60.1878 17.5 59.4731 17.66 58.6731 17.66C57.8731 17.66 57.1531 17.5 56.5131 17.18C55.8731 16.86 55.3718 16.412 55.0091 15.836C54.6465 15.26 54.4651 14.588 54.4651 13.82ZM56.9451 13.82C56.9451 14.204 57.0251 14.5347 57.1851 14.812C57.3451 15.0787 57.5531 15.2867 57.8091 15.436C58.0651 15.5853 58.3531 15.66 58.6731 15.66C58.9825 15.66 59.2651 15.5853 59.5211 15.436C59.7878 15.2867 59.9958 15.0787 60.1451 14.812C60.3051 14.5347 60.3851 14.204 60.3851 13.82C60.3851 13.436 60.3051 13.1053 60.1451 12.828C59.9958 12.5507 59.7878 12.3373 59.5211 12.188C59.2651 12.0387 58.9825 11.964 58.6731 11.964C58.3531 11.964 58.0651 12.0387 57.8091 12.188C57.5531 12.3373 57.3451 12.5507 57.1851 12.828C57.0251 13.1053 56.9451 13.436 56.9451 13.82ZM64.047 18.028H66.383C66.415 18.3267 66.5003 18.5773 66.639 18.78C66.7883 18.9827 66.9857 19.132 67.231 19.228C67.4763 19.3347 67.7537 19.388 68.063 19.388C68.4043 19.388 68.7137 19.308 68.991 19.148C69.2683 18.9987 69.487 18.7693 69.647 18.46C69.8177 18.1613 69.903 17.788 69.903 17.34V10.14H72.223V17.34C72.223 18.2787 72.0363 19.0413 71.663 19.628C71.3003 20.2147 70.815 20.6413 70.207 20.908C69.599 21.1853 68.9163 21.324 68.159 21.324C67.2523 21.324 66.5003 21.1853 65.903 20.908C65.3163 20.6307 64.8737 20.2413 64.575 19.74C64.2763 19.2493 64.1003 18.6787 64.047 18.028ZM63.887 13.724C63.887 12.892 64.0523 12.1987 64.383 11.644C64.7243 11.0893 65.1617 10.6733 65.695 10.396C66.2283 10.1187 66.7937 9.98 67.391 9.98C68.0097 9.98 68.5537 10.1293 69.023 10.428C69.503 10.716 69.8817 11.1373 70.159 11.692C70.4363 12.2467 70.575 12.924 70.575 13.724C70.575 14.5133 70.4363 15.1907 70.159 15.756C69.8817 16.3107 69.503 16.7373 69.023 17.036C68.5537 17.324 68.0097 17.468 67.391 17.468C66.7937 17.468 66.2283 17.3293 65.695 17.052C65.1617 16.764 64.7243 16.3427 64.383 15.788C64.0523 15.2333 63.887 14.5453 63.887 13.724ZM66.431 13.724C66.431 14.0973 66.511 14.4227 66.671 14.7C66.831 14.9667 67.0443 15.1693 67.311 15.308C67.5777 15.4467 67.871 15.516 68.191 15.516C68.4683 15.516 68.735 15.452 68.991 15.324C69.2577 15.1853 69.4763 14.9827 69.647 14.716C69.8177 14.4493 69.903 14.1187 69.903 13.724C69.903 13.4253 69.8497 13.164 69.743 12.94C69.647 12.716 69.5137 12.5293 69.343 12.38C69.183 12.2307 69.0017 12.1187 68.799 12.044C68.5963 11.9693 68.3937 11.932 68.191 11.932C67.871 11.932 67.5777 12.0013 67.311 12.14C67.0443 12.2787 66.831 12.4813 66.671 12.748C66.511 13.0147 66.431 13.34 66.431 13.724ZM74.0846 5.02H76.5166V17.5H74.0846V5.02ZM82.1411 17.66C81.2878 17.66 80.5465 17.5053 79.9171 17.196C79.2985 16.876 78.8185 16.428 78.4771 15.852C78.1358 15.276 77.9651 14.5987 77.9651 13.82C77.9651 13.0307 78.1305 12.348 78.4611 11.772C78.7918 11.196 79.2665 10.7533 79.8851 10.444C80.5145 10.1347 81.2558 9.98 82.1091 9.98C82.9625 9.98 83.6825 10.1293 84.2691 10.428C84.8558 10.716 85.3038 11.1373 85.6131 11.692C85.9225 12.2467 86.0771 12.9187 86.0771 13.708C86.0771 13.8253 86.0771 13.9427 86.0771 14.06C86.0771 14.1667 86.0665 14.2573 86.0451 14.332H79.3251V12.988H83.8691L83.2931 13.724C83.3465 13.6493 83.3891 13.5587 83.4211 13.452C83.4638 13.3347 83.4851 13.2387 83.4851 13.164C83.4851 12.844 83.4265 12.5667 83.3091 12.332C83.1918 12.0973 83.0265 11.916 82.8131 11.788C82.5998 11.66 82.3491 11.596 82.0611 11.596C81.6985 11.596 81.3945 11.676 81.1491 11.836C80.9038 11.996 80.7171 12.2413 80.5891 12.572C80.4718 12.892 80.4078 13.2973 80.3971 13.788C80.3971 14.236 80.4611 14.62 80.5891 14.94C80.7171 15.26 80.9091 15.5053 81.1651 15.676C81.4211 15.836 81.7358 15.916 82.1091 15.916C82.5358 15.916 82.8985 15.836 83.1971 15.676C83.5065 15.516 83.7518 15.276 83.9331 14.956L86.0931 15.484C85.7091 16.2093 85.1865 16.7533 84.5251 17.116C83.8745 17.4787 83.0798 17.66 82.1411 17.66Z" fill="black"/>
<g clip-path="url(#clip0_448_785)">
<path d="M11 10.0909V14.1573H16.6509C16.4028 15.465 15.6581 16.5723 14.5413 17.3168L17.949 19.9609C19.9345 18.1283 21.0799 15.4364 21.0799 12.2387C21.0799 11.4942 21.0131 10.7782 20.889 10.091L11 10.0909Z" fill="#4285F4"/>
<path d="M5.11553 13.9985L4.34696 14.5869L1.62646 16.7059C3.35419 20.1327 6.89529 22.5 10.9998 22.5C13.8347 22.5 16.2115 21.5645 17.9488 19.9609L14.5411 17.3168C13.6057 17.9468 12.4125 18.3287 10.9998 18.3287C8.26982 18.3287 5.95034 16.4864 5.11982 14.0046L5.11553 13.9985Z" fill="#34A853"/>
<path d="M1.62628 7.2941C0.910412 8.70677 0.5 10.3009 0.5 11.9999C0.5 13.699 0.910412 15.2931 1.62628 16.7058C1.62628 16.7153 5.11998 13.9949 5.11998 13.9949C4.90998 13.3649 4.78585 12.6967 4.78585 11.9998C4.78585 11.3029 4.90998 10.6348 5.11998 10.0048L1.62628 7.2941Z" fill="#FBBC05"/>
<path d="M11 5.68091C12.5464 5.68091 13.9209 6.21544 15.0187 7.24636L18.0254 4.23958C16.2023 2.54052 13.8351 1.5 11 1.5C6.8955 1.5 3.35419 3.85772 1.62646 7.2941L5.12005 10.005C5.95046 7.52317 8.27003 5.68091 11 5.68091Z" fill="#EA4335"/>
</g>
<defs>
<clipPath id="clip0_448_785">
<rect width="21" height="21" fill="white" transform="translate(0.5 1.5)"/>
</clipPath>
</defs>
</svg>
